# xmcd CD database file
#
# Track frame offsets:
#	150
#	16812
#	26762
#	42360
#	53896
#	68012
#	82922
#	94444
#	109310
#	116925
#	132053
#	145426
#	156086
#	167452
#	182131
#
# Disc length: 2575 seconds
#
# Revision: 0
# Processed by: cddbd v1.5.2PL0 Copyright (c) Steve Scherf et al.
# Submitted via: CDex 1.51
#
DISCID=cb0a0d0f
DTITLE=Pete Neuman and the Real Deal - Box of Yesterdays
DYEAR=2005
DGENRE=Blues
TTITLE0=Pete Neuman and the Real Deal - Goin' to the City
TTITLE1=Pete Neuman and the Real Deal - Shut Up and Play
TTITLE2=Pete Neuman and the Real Deal - Stormy Monday
TTITLE3=Pete Neuman and the Real Deal - You Cross My Mind
TTITLE4=Pete Neuman and the Real Deal - Box of Yesterdays
TTITLE5=Pete Neuman and the Real Deal - Midwest Twister
TTITLE6=Pete Neuman and the Real Deal - Look on Yonder Wall
TTITLE7=Pete Neuman and the Real Deal - Yourself to Blame
TTITLE8=Pete Neuman and the Real Deal - Loved by You
TTITLE9=Pete Neuman and the Real Deal - Log Jam
TTITLE10=Pete Neuman and the Real Deal - City Called Heaven
TTITLE11=Pete Neuman and the Real Deal - If you knew who walked beside you
TTITLE12=Pete Neuman and the Real Deal - Jukebox Junp
TTITLE13=Pete Neuman and the Real Deal - Back in Town
TTITLE14=Pete Neuman and the Real Deal - Little Wing
EXTD=YEAR: 2005
EXTT0=
EXTT1=
EXTT2=
EXTT3=
EXTT4=
EXTT5=
EXTT6=
EXTT7=
EXTT8=
EXTT9=
EXTT10=
EXTT11=
EXTT12=
EXTT13=
EXTT14=
PLAYORDER=
